<?xml version="1.0" encoding="utf-8"?>
<svg version="1.1" xmlns:xlink="http://www.w3.org/1999/xlink" width="24px" height="24px" xmlns="http://www.w3.org/2000/svg">
  <g transform="matrix(1 0 0 1 -261 -40 )">
    <path d="M 18.1875 21.703125  C 18.3701923076923 21.5052083333333  18.4615384615384 21.2708333333333  18.4615384615384 21  C 18.4615384615384 20.7291666666667  18.3701923076923 20.4947916666667  18.1875 20.296875  C 18.0048076923077 20.0989583333333  17.7884615384615 20  17.5384615384616 20  C 17.2884615384615 20  17.0721153846154 20.0989583333333  16.8894230769231 20.296875  C 16.7067307692308 20.4947916666667  16.6153846153846 20.7291666666667  16.6153846153846 21  C 16.6153846153846 21.2708333333333  16.7067307692308 21.5052083333333  16.8894230769231 21.703125  C 17.0721153846154 21.9010416666667  17.2884615384615 22  17.5384615384616 22  C 17.7884615384615 22  18.0048076923077 21.9010416666667  18.1875 21.703125  Z M 21.8798076923077 21.703125  C 22.0625 21.5052083333333  22.1538461538461 21.2708333333333  22.1538461538461 21  C 22.1538461538461 20.7291666666667  22.0625 20.4947916666667  21.8798076923077 20.296875  C 21.6971153846154 20.0989583333333  21.4807692307692 20  21.2307692307692 20  C 20.9807692307692 20  20.7644230769231 20.0989583333333  20.5817307692308 20.296875  C 20.3990384615385 20.4947916666667  20.3076923076923 20.7291666666667  20.3076923076923 21  C 20.3076923076923 21.2708333333333  20.3990384615385 21.5052083333333  20.5817307692308 21.703125  C 20.7644230769231 21.9010416666667  20.9807692307692 22  21.2307692307692 22  C 21.4807692307692 22  21.6971153846154 21.9010416666667  21.8798076923077 21.703125  Z M 23.5961538461539 16.4375  C 23.8653846153846 16.7291666666667  24 17.0833333333333  24 17.5  L 24 22.5  C 24 22.9166666666667  23.8653846153846 23.2708333333333  23.5961538461539 23.5625  C 23.3269230769231 23.8541666666667  23 24  22.6153846153846 24  L 1.38461538461538 24  C 0.999999999999993 24  0.673076923076919 23.8541666666667  0.403846153846155 23.5625  C 0.134615384615392 23.2708333333333  0 22.9166666666667  0 22.5  L 0 17.5  C 0 17.0833333333333  0.134615384615392 16.7291666666667  0.403846153846155 16.4375  C 0.673076923076919 16.1458333333333  0.999999999999993 16  1.38461538461538 16  L 8.09134615384616 16  L 10.0384615384616 18.125  C 10.5961538461539 18.7083333333333  11.25 19  12 19  C 12.75 19  13.4038461538461 18.7083333333333  13.9615384615384 18.125  L 15.9230769230769 16  L 22.6153846153846 16  C 23 16  23.3269230769231 16.1458333333333  23.5961538461539 16.4375  Z M 18.4615384615384 8  C 18.8653846153846 8  19.1490384615385 8.203125  19.3125 8.609375  C 19.4759615384615 9.03645833333333  19.4086538461539 9.40104166666667  19.1105769230769 9.703125  L 12.6490384615384 16.703125  C 12.4759615384616 16.9010416666667  12.2596153846154 17  12 17  C 11.7403846153846 17  11.5240384615384 16.9010416666667  11.3509615384616 16.703125  L 4.88942307692307 9.703125  C 4.59134615384615 9.40104166666667  4.52403846153845 9.03645833333333  4.6875 8.609375  C 4.85096153846155 8.203125  5.13461538461538 8  5.53846153846153 8  C 5.53846153846153 8  8.19692307692306 9.13389578163772  9.23076923076922 8  C 11.0178280542986 6.04000000000001  9.23076923076922 0.999999999999998  9.23076923076922 0.999999999999998  C 9.23076923076922 0.729166666666662  9.32211538461539 0.494791666666662  9.50480769230769 0.296874999999998  C 9.68750000000001 0.0989583333333346  9.90384615384616 0  10.1538461538461 0  L 13.8461538461539 0  C 14.0961538461538 0  14.3125 0.0989583333333346  14.4951923076923 0.296874999999998  C 14.6778846153846 0.494791666666662  14.7692307692308 0.729166666666662  14.7692307692308 0.999999999999998  L 14.7692307692308 8  L 18.4615384615384 8  Z " fill-rule="nonzero" fill="#ffffff" stroke="none" transform="matrix(1 0 0 1 261 40 )" />
  </g>
</svg>