<?xml version="1.0" encoding="utf-8"?>
<svg version="1.1" xmlns:xlink="http://www.w3.org/1999/xlink" width="34px" height="31px" xmlns="http://www.w3.org/2000/svg">
  <g transform="matrix(1 0 0 1 -323 -33 )">
    <path d="M 25.765625 28.033203125  C 26.0244391025641 27.7775607638889  26.1538461538462 27.4748263888889  26.1538461538462 27.125  C 26.1538461538462 26.7751736111111  26.0244391025641 26.4724392361111  25.765625 26.216796875  C 25.5068108974359 25.9611545138889  25.2003205128205 25.8333333333333  24.8461538461538 25.8333333333333  C 24.4919871794872 25.8333333333333  24.1854967948718 25.9611545138889  23.9266826923077 26.216796875  C 23.6678685897436 26.4724392361111  23.5384615384615 26.7751736111111  23.5384615384615 27.125  C 23.5384615384615 27.4748263888889  23.6678685897436 27.7775607638889  23.9266826923077 28.033203125  C 24.1854967948718 28.2888454861111  24.4919871794872 28.4166666666667  24.8461538461538 28.4166666666667  C 25.2003205128205 28.4166666666667  25.5068108974359 28.2888454861111  25.765625 28.033203125  Z M 30.9963942307692 28.033203125  C 31.2552083333333 27.7775607638889  31.3846153846154 27.4748263888889  31.3846153846154 27.125  C 31.3846153846154 26.7751736111111  31.2552083333333 26.4724392361111  30.9963942307692 26.216796875  C 30.7375801282051 25.9611545138889  30.4310897435897 25.8333333333333  30.0769230769231 25.8333333333333  C 29.7227564102564 25.8333333333333  29.416266025641 25.9611545138889  29.1574519230769 26.216796875  C 28.8986378205128 26.4724392361111  28.7692307692308 26.7751736111111  28.7692307692308 27.125  C 28.7692307692308 27.4748263888889  28.8986378205128 27.7775607638889  29.1574519230769 28.033203125  C 29.416266025641 28.2888454861111  29.7227564102564 28.4166666666667  30.0769230769231 28.4166666666667  C 30.4310897435897 28.4166666666667  30.7375801282051 28.2888454861111  30.9963942307692 28.033203125  Z M 33.4278846153846 21.2317708333333  C 33.8092948717949 21.6085069444444  34 22.0659722222222  34 22.6041666666667  L 34 29.0625  C 34 29.6006944444444  33.8092948717949 30.0581597222222  33.4278846153846 30.4348958333333  C 33.0464743589744 30.8116319444444  32.5833333333333 31  32.0384615384615 31  L 1.96153846153846 31  C 1.41666666666667 31  0.953525641025641 30.8116319444444  0.572115384615385 30.4348958333333  C 0.190705128205128 30.0581597222222  0 29.6006944444444  0 29.0625  L 0 22.6041666666667  C 0 22.0659722222222  0.190705128205128 21.6085069444444  0.572115384615385 21.2317708333333  C 0.953525641025641 20.8550347222222  1.41666666666667 20.6666666666667  1.96153846153846 20.6666666666667  L 11.4627403846154 20.6666666666667  L 14.2211538461538 23.4114583333333  C 15.011217948718 24.1649305555556  15.9375 24.5416666666667  17 24.5416666666667  C 18.0625 24.5416666666667  18.9887820512821 24.1649305555556  19.7788461538462 23.4114583333333  L 22.5576923076923 20.6666666666667  L 32.0384615384615 20.6666666666667  C 32.5833333333333 20.6666666666667  33.0464743589744 20.8550347222222  33.4278846153846 21.2317708333333  Z M 26.1538461538462 10.3333333333333  C 26.7259615384615 10.3333333333333  27.1278044871795 10.595703125  27.359375 11.1204427083333  C 27.5909455128205 11.6720920138889  27.495592948718 12.1430121527778  27.0733173076923 12.533203125  L 17.9194711538462 21.5748697916667  C 17.6742788461538 21.8305121527778  17.3677884615385 21.9583333333333  17 21.9583333333333  C 16.6322115384615 21.9583333333333  16.3257211538462 21.8305121527778  16.0805288461538 21.5748697916667  L 6.92668269230769 12.533203125  C 6.50440705128205 12.1430121527778  6.40905448717949 11.6720920138889  6.640625 11.1204427083333  C 6.87219551282051 10.595703125  7.27403846153846 10.3333333333333  7.84615384615385 10.3333333333333  L 13.0769230769231 10.3333333333333  L 13.0769230769231 1.29166666666667  C 13.0769230769231 0.941840277777774  13.2063301282051 0.639105902777774  13.4651442307692 0.383463541666666  C 13.7239583333333 0.127821180555557  14.0304487179487 0  14.3846153846154 0  L 19.6153846153846 0  C 19.9695512820513 0  20.2760416666667 0.127821180555557  20.5348557692308 0.383463541666666  C 20.7936698717949 0.639105902777774  20.9230769230769 0.941840277777774  20.9230769230769 1.29166666666667  L 20.9230769230769 10.3333333333333  L 26.1538461538462 10.3333333333333  Z " fill-rule="nonzero" fill="#ffffff" stroke="none" transform="matrix(1 0 0 1 323 33 )" />
  </g>
</svg>