<?xml version="1.0" encoding="utf-8"?>
<svg version="1.1" xmlns:xlink="http://www.w3.org/1999/xlink" width="34px" height="34px" xmlns="http://www.w3.org/2000/svg">
  <g transform="matrix(1 0 0 1 -30 -32 )">
    <path d="M 20.8515625 20.8515625  C 22.642828525641 19.060296474359  23.5384615384615 16.9046474358974  23.5384615384615 14.3846153846154  C 23.5384615384615 11.8645833333333  22.642828525641 9.70893429487179  20.8515625 7.91766826923077  C 19.060296474359 6.12640224358974  16.9046474358974 5.23076923076923  14.3846153846154 5.23076923076923  C 11.8645833333333 5.23076923076923  9.7089342948718 6.12640224358974  7.91766826923077 7.91766826923077  C 6.12640224358974 9.70893429487179  5.23076923076923 11.8645833333333  5.23076923076923 14.3846153846154  C 5.23076923076923 16.9046474358974  6.12640224358974 19.060296474359  7.91766826923077 20.8515625  C 9.7089342948718 22.642828525641  11.8645833333333 23.5384615384615  14.3846153846154 23.5384615384615  C 16.9046474358974 23.5384615384615  19.060296474359 22.642828525641  20.8515625 20.8515625  Z M 33.2439903846154 29.5456730769231  C 33.7479967948718 30.0496794871795  34 30.6626602564103  34 31.3846153846154  C 34 32.0929487179487  33.7411858974359 32.7059294871795  33.2235576923077 33.2235576923077  C 32.7059294871795 33.7411858974359  32.0929487179487 34  31.3846153846154 34  C 30.6490384615385 34  30.0360576923077 33.7411858974359  29.5456730769231 33.2235576923077  L 22.5372596153846 26.2355769230769  C 20.0989583333333 27.9246794871795  17.3814102564103 28.7692307692308  14.3846153846154 28.7692307692308  C 12.4366987179487 28.7692307692308  10.5739182692308 28.3912259615385  8.79627403846154 27.6352163461538  C 7.01862980769231 26.8792067307692  5.48617788461538 25.8575721153846  4.19891826923077 24.5703125  C 2.91165865384615 23.2830528846154  1.89002403846154 21.7506009615385  1.13401442307692 19.9729567307692  C 0.378004807692308 18.1953125  0 16.332532051282  0 14.3846153846154  C 0 12.4366987179487  0.378004807692308 10.5739182692308  1.13401442307692 8.79627403846154  C 1.89002403846154 7.01862980769231  2.91165865384615 5.48617788461539  4.19891826923077 4.19891826923077  C 5.48617788461538 2.91165865384616  7.01862980769231 1.89002403846154  8.79627403846154 1.13401442307692  C 10.5739182692308 0.378004807692307  12.4366987179487 0  14.3846153846154 0  C 16.3325320512821 0  18.1953125 0.378004807692307  19.9729567307692 1.13401442307692  C 21.7506009615385 1.89002403846154  23.2830528846154 2.91165865384616  24.5703125 4.19891826923077  C 25.8575721153846 5.48617788461539  26.8792067307692 7.01862980769231  27.6352163461538 8.79627403846154  C 28.3912259615385 10.5739182692308  28.7692307692308 12.4366987179487  28.7692307692308 14.3846153846154  C 28.7692307692308 17.3814102564103  27.9246794871795 20.0989583333333  26.2355769230769 22.5372596153846  L 33.2439903846154 29.5456730769231  Z " fill-rule="nonzero" fill="#fffcfc" stroke="none" transform="matrix(1 0 0 1 30 32 )" />
  </g>
</svg>