<?xml version="1.0" encoding="utf-8"?>
<svg version="1.1" xmlns:xlink="http://www.w3.org/1999/xlink" width="28px" height="26px" xmlns="http://www.w3.org/2000/svg">
  <g transform="matrix(1 0 0 1 -295 -31 )">
    <path d="M 21.21875 23.51171875  C 21.431891025641 23.2973090277778  21.5384615384615 23.0434027777778  21.5384615384615 22.75  C 21.5384615384615 22.4565972222222  21.431891025641 22.2026909722222  21.21875 21.98828125  C 21.005608974359 21.7738715277778  20.7532051282051 21.6666666666667  20.4615384615385 21.6666666666667  C 20.1698717948718 21.6666666666667  19.9174679487179 21.7738715277778  19.7043269230769 21.98828125  C 19.4911858974359 22.2026909722222  19.3846153846154 22.4565972222222  19.3846153846154 22.75  C 19.3846153846154 23.0434027777778  19.4911858974359 23.2973090277778  19.7043269230769 23.51171875  C 19.9174679487179 23.7261284722222  20.1698717948718 23.8333333333333  20.4615384615385 23.8333333333333  C 20.7532051282051 23.8333333333333  21.005608974359 23.7261284722222  21.21875 23.51171875  Z M 25.5264423076923 23.51171875  C 25.7395833333333 23.2973090277778  25.8461538461538 23.0434027777778  25.8461538461538 22.75  C 25.8461538461538 22.4565972222222  25.7395833333333 22.2026909722222  25.5264423076923 21.98828125  C 25.3133012820513 21.7738715277778  25.0608974358974 21.6666666666667  24.7692307692308 21.6666666666667  C 24.4775641025641 21.6666666666667  24.2251602564103 21.7738715277778  24.0120192307692 21.98828125  C 23.7988782051282 22.2026909722222  23.6923076923077 22.4565972222222  23.6923076923077 22.75  C 23.6923076923077 23.0434027777778  23.7988782051282 23.2973090277778  24.0120192307692 23.51171875  C 24.2251602564103 23.7261284722222  24.4775641025641 23.8333333333333  24.7692307692308 23.8333333333333  C 25.0608974358974 23.8333333333333  25.3133012820513 23.7261284722222  25.5264423076923 23.51171875  Z M 27.5288461538462 17.8072916666667  C 27.8429487179487 18.1232638888889  28 18.5069444444444  28 18.9583333333333  L 28 24.375  C 28 24.8263888888889  27.8429487179487 25.2100694444444  27.5288461538462 25.5260416666667  C 27.2147435897436 25.8420138888889  26.8333333333333 26  26.3846153846154 26  L 1.61538461538462 26  C 1.16666666666667 26  0.78525641025641 25.8420138888889  0.471153846153846 25.5260416666667  C 0.157051282051282 25.2100694444444  0 24.8263888888889  0 24.375  L 0 18.9583333333333  C 0 18.5069444444444  0.157051282051282 18.1232638888889  0.471153846153846 17.8072916666667  C 0.78525641025641 17.4913194444444  1.16666666666667 17.3333333333333  1.61538461538462 17.3333333333333  L 9.43990384615385 17.3333333333333  L 11.7115384615385 19.6354166666667  C 12.3621794871795 20.2673611111111  13.125 20.5833333333333  14 20.5833333333333  C 14.875 20.5833333333333  15.6378205128205 20.2673611111111  16.2884615384615 19.6354166666667  L 18.5769230769231 17.3333333333333  L 26.3846153846154 17.3333333333333  C 26.8333333333333 17.3333333333333  27.2147435897436 17.4913194444444  27.5288461538462 17.8072916666667  Z M 21.5384615384615 8.66666666666667  C 22.0096153846154 8.66666666666667  22.3405448717949 8.88671875  22.53125 9.32682291666667  C 22.7219551282051 9.78949652777778  22.6434294871795 10.1844618055556  22.2956730769231 10.51171875  L 14.7572115384615 18.0950520833333  C 14.5552884615385 18.3094618055556  14.3028846153846 18.4166666666667  14 18.4166666666667  C 13.6971153846154 18.4166666666667  13.4447115384615 18.3094618055556  13.2427884615385 18.0950520833333  L 5.70432692307692 10.51171875  C 5.35657051282051 10.1844618055556  5.27804487179487 9.78949652777778  5.46875 9.32682291666667  C 5.65945512820513 8.88671875  5.99038461538461 8.66666666666667  6.46153846153846 8.66666666666667  L 10.7692307692308 8.66666666666667  L 10.7692307692308 1.08333333333333  C 10.7692307692308 0.789930555555552  10.8758012820513 0.536024305555552  11.0889423076923 0.321614583333332  C 11.3020833333333 0.107204861111113  11.5544871794872 0  11.8461538461538 0  L 16.1538461538462 0  C 16.4455128205128 0  16.6979166666667 0.107204861111113  16.9110576923077 0.321614583333332  C 17.1241987179487 0.536024305555552  17.2307692307692 0.789930555555552  17.2307692307692 1.08333333333333  L 17.2307692307692 8.66666666666667  L 21.5384615384615 8.66666666666667  Z " fill-rule="nonzero" fill="#ffffff" stroke="none" transform="matrix(1 0 0 1 295 31 )" />
  </g>
</svg>