<?xml version="1.0" encoding="utf-8"?>
<svg version="1.1" xmlns:xlink="http://www.w3.org/1999/xlink" width="24px" height="24px" xmlns="http://www.w3.org/2000/svg">
  <g transform="matrix(1 0 0 1 -42 -34 )">
    <path d="M 14.71875 14.71875  C 15.9831730769231 13.4543269230769  16.6153846153846 11.9326923076923  16.6153846153846 10.1538461538462  C 16.6153846153846 8.375  15.9831730769231 6.85336538461538  14.71875 5.58894230769231  C 13.4543269230769 4.32451923076923  11.9326923076923 3.69230769230769  10.1538461538462 3.69230769230769  C 8.375 3.69230769230769  6.85336538461539 4.32451923076923  5.58894230769231 5.58894230769231  C 4.32451923076923 6.85336538461538  3.69230769230769 8.375  3.69230769230769 10.1538461538462  C 3.69230769230769 11.9326923076923  4.32451923076923 13.4543269230769  5.58894230769231 14.71875  C 6.85336538461539 15.9831730769231  8.375 16.6153846153846  10.1538461538462 16.6153846153846  C 11.9326923076923 16.6153846153846  13.4543269230769 15.9831730769231  14.71875 14.71875  Z M 23.4663461538462 20.8557692307692  C 23.8221153846154 21.2115384615385  24 21.6442307692308  24 22.1538461538462  C 24 22.6538461538462  23.8173076923077 23.0865384615385  23.4519230769231 23.4519230769231  C 23.0865384615385 23.8173076923077  22.6538461538462 24  22.1538461538462 24  C 21.6346153846154 24  21.2019230769231 23.8173076923077  20.8557692307692 23.4519230769231  L 15.9086538461538 18.5192307692308  C 14.1875 19.7115384615385  12.2692307692308 20.3076923076923  10.1538461538462 20.3076923076923  C 8.77884615384616 20.3076923076923  7.46394230769231 20.0408653846154  6.20913461538461 19.5072115384615  C 4.95432692307692 18.9735576923077  3.87259615384615 18.2524038461538  2.96394230769231 17.34375  C 2.05528846153846 16.4350961538462  1.33413461538462 15.3533653846154  0.800480769230769 14.0985576923077  C 0.266826923076923 12.84375  0 11.5288461538462  0 10.1538461538462  C 0 8.77884615384615  0.266826923076923 7.46394230769231  0.800480769230769 6.20913461538461  C 1.33413461538462 4.95432692307692  2.05528846153846 3.87259615384616  2.96394230769231 2.96394230769231  C 3.87259615384615 2.05528846153846  4.95432692307692 1.33413461538461  6.20913461538461 0.80048076923077  C 7.46394230769231 0.266826923076922  8.77884615384616 0  10.1538461538462 0  C 11.5288461538462 0  12.84375 0.266826923076922  14.0985576923077 0.80048076923077  C 15.3533653846154 1.33413461538461  16.4350961538462 2.05528846153846  17.34375 2.96394230769231  C 18.2524038461538 3.87259615384616  18.9735576923077 4.95432692307692  19.5072115384615 6.20913461538461  C 20.0408653846154 7.46394230769231  20.3076923076923 8.77884615384615  20.3076923076923 10.1538461538462  C 20.3076923076923 12.2692307692308  19.7115384615385 14.1875  18.5192307692308 15.9086538461538  L 23.4663461538462 20.8557692307692  Z " fill-rule="nonzero" fill="#fffcfc" stroke="none" transform="matrix(1 0 0 1 42 34 )" />
  </g>
</svg>