<?xml version="1.0" encoding="utf-8"?>
<svg version="1.1" xmlns:xlink="http://www.w3.org/1999/xlink" width="13px" height="13px" xmlns="http://www.w3.org/2000/svg">
  <g transform="matrix(1 0 0 1 -174 -170 )">
    <path d="M 180.5 170  C 184.14 170  187 172.86  187 176.5  C 187 180.14  184.14 183  180.5 183  C 176.86 183  174 180.14  174 176.5  C 174 172.86  176.86 170  180.5 170  Z " fill-rule="nonzero" fill="#ffffff" stroke="none" />
    <path d="M 180.5 170.5  C 183.86 170.5  186.5 173.14  186.5 176.5  C 186.5 179.86  183.86 182.5  180.5 182.5  C 177.14 182.5  174.5 179.86  174.5 176.5  C 174.5 173.14  177.14 170.5  180.5 170.5  Z " stroke-width="1" stroke="#fffefe" fill="none" />
  </g>
</svg>